# xmcd
#
# Track frame offsets: 
#        150
#        14441
#        31045
#        48799
#        73240
#        92610
#        117128
#        131587
#        148463
#        161960
#        181086
#
# Disc length: 2682 seconds
#
# Revision: 0
# Processed by: cddbd v1.5.2PL0 Copyright (c) Steve Scherf et al.
# Submitted via: ExactAudioCopy v1.3
#
DISCID=950a780b
DTITLE=The Delta Saints - The Delta Saints
DYEAR=2011
DGENRE=Blues Rock
TTITLE0=A Bird Called Angola
TTITLE1=Good in White
TTITLE2=Company Of Thieves
TTITLE3=Steppin'
TTITLE4=Momma
TTITLE5=Pray On
TTITLE6=Voodoo Walk
TTITLE7=Callin' Me Home
TTITLE8=Swamp Groove
TTITLE9=3,000 Miles
TTITLE10=Train Song
EXTD=
EXTT0=
EXTT1=
EXTT2=
EXTT3=
EXTT4=
EXTT5=
EXTT6=
EXTT7=
EXTT8=
EXTT9=
EXTT10=
PLAYORDER=
